<svg width="32" height="32" viewBox="0 0 32 32" fill="none" xmlns="http://www.w3.org/2000/svg">
<path d="M16 3C8.8175 3 3 8.73904 3 15.8172C3 21.4812 6.7245 26.2844 11.8888 27.9779C12.5388 28.0985 12.7771 27.7018 12.7771 27.3616C12.7771 27.0572 12.7663 26.2507 12.7608 25.1823C9.14467 25.9551 8.382 23.4627 8.382 23.4627C7.7905 21.9834 6.93575 21.5878 6.93575 21.5878C5.75817 20.7932 7.02675 20.8095 7.02675 20.8095C8.33217 20.8986 9.01792 22.1301 9.01792 22.1301C10.1771 24.0899 12.061 23.5236 12.8042 23.1964C12.9212 22.3671 13.2559 21.803 13.6275 21.4823C10.7404 21.1617 7.706 20.0595 7.706 15.1487C7.706 13.7498 8.20975 12.6064 9.04392 11.7097C8.89767 11.3857 8.45892 10.0825 9.15767 8.31731C9.15767 8.31731 10.2464 7.97384 12.7327 9.63142C13.7727 9.34664 14.8777 9.20534 15.9827 9.19882C17.0877 9.20534 18.1927 9.34664 19.2327 9.63142C21.7027 7.97384 22.7914 8.31731 22.7914 8.31731C23.4902 10.0825 23.0514 11.3857 22.9214 11.7097C23.7502 12.6064 24.2539 13.7498 24.2539 15.1487C24.2539 20.0726 21.2152 21.1562 18.3227 21.4715C18.7777 21.8562 19.2002 22.6421 19.2002 23.8432C19.2002 25.5584 19.1839 26.9366 19.1839 27.3529C19.1839 27.6888 19.4114 28.0898 20.0777 27.9616C25.2788 26.279 29 21.4725 29 15.8172C29 8.73904 23.1793 3 16 3Z" fill="black"/>
</svg>
