<svg width="32" height="32" viewBox="0 0 32 32" fill="none" xmlns="http://www.w3.org/2000/svg">
<path d="M21.8248 3H10.1749C6.21867 3 3 6.21883 3 10.1751V21.825C3 25.7814 6.21867 29.0001 10.1749 29.0001H21.8248C25.7814 29.0001 29.0001 25.7812 29.0001 21.825V10.1751C29.0002 6.21883 25.7814 3 21.8248 3ZM26.6934 21.825C26.6934 24.5094 24.5094 26.6932 21.825 26.6932H10.1749C7.49067 26.6934 5.30685 24.5094 5.30685 21.825V10.1751C5.30685 7.49083 7.49067 5.30685 10.1749 5.30685H21.8248C24.5092 5.30685 26.6932 7.49083 26.6932 10.1751L26.6934 21.825Z" fill="black"/>
<path d="M15.9999 9.30075C12.3057 9.30075 9.30029 12.3061 9.30029 16.0003C9.30029 19.6944 12.3057 22.6996 15.9999 22.6996C19.694 22.6996 22.6994 19.6944 22.6994 16.0003C22.6994 12.3061 19.694 9.30075 15.9999 9.30075ZM15.9999 20.3926C13.5778 20.3926 11.6071 18.4222 11.6071 16.0002C11.6071 13.578 13.5777 11.6074 15.9999 11.6074C18.422 11.6074 20.3926 13.578 20.3926 16.0002C20.3926 18.4222 18.4219 20.3926 15.9999 20.3926Z" fill="black"/>
<path d="M22.9805 7.34467C22.5361 7.34467 22.0994 7.5246 21.7856 7.83987C21.4701 8.1536 21.2888 8.59037 21.2888 9.03636C21.2888 9.48096 21.4703 9.91757 21.7856 10.2328C22.0993 10.5466 22.5361 10.728 22.9805 10.728C23.4265 10.728 23.8617 10.5466 24.177 10.2328C24.4923 9.91757 24.6722 9.48081 24.6722 9.03636C24.6722 8.59037 24.4923 8.1536 24.177 7.83987C23.8633 7.5246 23.4265 7.34467 22.9805 7.34467Z" fill="black"/>
</svg>
