<svg width="32" height="32" viewBox="0 0 32 32" fill="none" xmlns="http://www.w3.org/2000/svg">
<path d="M26.4 3H5.6C4.17 3 3 4.17 3 5.6V26.4C3 27.83 4.17 29 5.6 29H26.4C27.83 29 29 27.83 29 26.4V5.6C29 4.17 27.83 3 26.4 3ZM10.8 25.1H6.9V13.4H10.8V25.1ZM8.85 11.19C7.55 11.19 6.51 10.15 6.51 8.85C6.51 7.55 7.55 6.51 8.85 6.51C10.15 6.51 11.19 7.55 11.19 8.85C11.19 10.15 10.15 11.19 8.85 11.19ZM25.1 25.1H21.2V18.21C21.2 17.1701 20.29 16.26 19.25 16.26C18.21 16.26 17.3 17.1701 17.3 18.21V25.1H13.4V13.4H17.3V14.96C17.95 13.92 19.38 13.14 20.55 13.14C23.02 13.14 25.1 15.22 25.1 17.69V25.1Z" fill="black"/>
</svg>
