<svg width="32" height="32" viewBox="0 0 32 32" fill="none" xmlns="http://www.w3.org/2000/svg">
<path fill-rule="evenodd" clip-rule="evenodd" d="M16 5C9.92487 5 5 9.92487 5 16C5 22.0751 9.92487 27 16 27C22.0751 27 27 22.0751 27 16C27 9.92487 22.0751 5 16 5ZM3 16C3 8.8203 8.8203 3 16 3C23.1797 3 29 8.8203 29 16C29 23.1797 23.1797 29 16 29C8.8203 29 3 23.1797 3 16ZM21.7951 10.2049C22.0629 10.4727 22.1565 10.8689 22.0367 11.2282L19.4927 18.8602C19.3931 19.1588 19.1588 19.3931 18.8602 19.4927L11.2282 22.0367C10.8689 22.1565 10.4727 22.0629 10.2049 21.7951C9.93706 21.5273 9.84354 21.1311 9.96332 20.7718L12.5073 13.1398C12.6069 12.8412 12.8412 12.6069 13.1398 12.5073L20.7718 9.96332C21.1311 9.84354 21.5273 9.93706 21.7951 10.2049ZM14.2466 14.2466L12.4931 19.5069L17.7534 17.7534L19.5069 12.4931L14.2466 14.2466Z" fill="black"/>
</svg>
