<svg width="32" height="32" viewBox="0 0 32 32" fill="none" xmlns="http://www.w3.org/2000/svg">
<path d="M15.1486 3.007C15.0927 3.01208 14.9148 3.02987 14.7546 3.04257C11.0618 3.37547 7.60274 5.36774 5.41193 8.42986C4.19198 10.1324 3.41173 12.0637 3.11691 14.1094C3.01271 14.8234 3 15.0344 3 16.0025C3 16.9707 3.01271 17.1816 3.11691 17.8957C3.82346 22.7773 7.29775 26.8788 12.0098 28.3984C12.8536 28.6703 13.7431 28.8558 14.7546 28.9676C15.1486 29.0108 16.8514 29.0108 17.2454 28.9676C18.9914 28.7745 20.4706 28.3425 21.9294 27.5979C22.1531 27.4836 22.1963 27.4531 22.1658 27.4277C22.1455 27.4124 21.1924 26.1342 20.0487 24.5892L17.9697 21.7812L15.3646 17.9262C13.9312 15.8069 12.7519 14.0738 12.7417 14.0738C12.7316 14.0713 12.7214 15.784 12.7163 17.8754C12.7087 21.5372 12.7062 21.6846 12.6604 21.771C12.5943 21.8955 12.5435 21.9463 12.4368 22.0022C12.3554 22.0429 12.2843 22.0505 11.9005 22.0505H11.4608L11.3439 21.9768C11.2676 21.9286 11.2117 21.865 11.1736 21.7913L11.1202 21.677L11.1253 16.5819L11.1329 11.4843L11.2117 11.3852C11.2524 11.3319 11.3388 11.2633 11.3998 11.2302C11.504 11.1794 11.5447 11.1743 11.9844 11.1743C12.5028 11.1743 12.5892 11.1946 12.7239 11.342C12.7621 11.3827 14.1726 13.5071 15.8602 16.0661C17.5478 18.625 19.8555 22.1191 20.9891 23.8344L23.0477 26.9525L23.1519 26.8838C24.0745 26.2841 25.0504 25.4303 25.8231 24.5409C27.4674 22.6528 28.5273 20.3505 28.8831 17.8957C28.9873 17.1816 29 16.9707 29 16.0025C29 15.0344 28.9873 14.8234 28.8831 14.1094C28.1765 9.22778 24.7022 5.12633 19.9902 3.60671C19.1591 3.33735 18.2747 3.15184 17.2835 3.04003C17.0395 3.01462 15.3595 2.98667 15.1486 3.007V3.007ZM20.4706 10.8694C20.5926 10.9304 20.6917 11.0473 20.7273 11.1692C20.7476 11.2353 20.7527 12.6482 20.7476 15.8323L20.74 20.4013L19.9343 19.1663L19.1261 17.9313V14.61C19.1261 12.4627 19.1363 11.2556 19.1515 11.1972C19.1922 11.0549 19.2811 10.9431 19.4031 10.877C19.5073 10.8236 19.5455 10.8186 19.9445 10.8186C20.3206 10.8186 20.3867 10.8236 20.4706 10.8694V10.8694Z" fill="black"/>
</svg>
