<svg width="32" height="32" viewBox="0 0 32 32" fill="none" xmlns="http://www.w3.org/2000/svg">
<path fill-rule="evenodd" clip-rule="evenodd" d="M5.12157 16.8946L3.23003 18.7897C3.08047 18.94 2.99572 19.1444 2.99572 19.3566V20.4227C2.99572 23.2793 3.2927 24.3155 3.85033 25.3603C4.39491 26.392 5.23707 27.2361 6.26747 27.7831C7.3101 28.3408 8.34418 28.6384 11.195 28.6384H16.2009C16.2656 28.6381 16.3237 28.599 16.3483 28.5392C16.3729 28.4794 16.3591 28.4107 16.3135 28.365L14.4226 26.4706C14.2731 26.3203 14.0694 26.2356 13.8572 26.2356H11.5433C9.40533 26.2356 8.63048 26.0126 7.84851 25.5932C7.07563 25.1831 6.44389 24.5501 6.0353 23.7764C5.62422 23.0061 5.40182 22.2419 5.39452 20.1791L5.39434 17.0078C5.394 16.9434 5.35507 16.8854 5.29554 16.8607C5.23601 16.836 5.16746 16.8493 5.12157 16.8946ZM28.3058 15.2915L26.4136 17.1866C26.264 17.3369 26.1793 17.5413 26.1793 17.7535V20.0724C26.1793 22.2153 25.9571 22.9923 25.5383 23.7757C25.1299 24.5493 24.4984 25.1822 23.7258 25.5925C22.9439 26.0119 22.1683 26.2348 20.0303 26.2348H16.9722C16.9073 26.2346 16.8487 26.2735 16.8237 26.3334C16.7988 26.3934 16.8124 26.4624 16.8583 26.5083L18.7505 28.4034C18.9001 28.5537 19.1038 28.6384 19.3153 28.6384H20.3793C23.2301 28.6384 24.2635 28.3408 25.3062 27.7824C26.3368 27.2355 27.1792 26.3914 27.724 25.3596C28.2739 24.3293 28.5703 23.3074 28.5784 20.54L28.5786 15.4047C28.5783 15.3403 28.5393 15.2823 28.4798 15.2576C28.4203 15.2329 28.3517 15.2462 28.3058 15.2915ZM9.11832 12.8879L7.22677 14.7851C7.07722 14.9354 6.99318 15.1391 6.99318 15.352V21.4298C6.99318 23.1995 8.42466 24.6346 10.1909 24.6346H12.2156C12.2795 24.6343 12.3371 24.596 12.3622 24.5372C12.3873 24.4784 12.3751 24.4103 12.331 24.3639L9.86682 21.7787C9.6959 21.6078 9.57198 21.4084 9.49435 21.1947C9.42629 21.0138 9.39154 20.8219 9.3918 20.6286V13.0011C9.39174 12.9364 9.3527 12.878 9.29286 12.8532C9.23302 12.8284 9.16415 12.8421 9.11832 12.8879ZM24.3105 19.2833L21.7317 21.7531C21.5615 21.924 21.3614 22.0479 21.1492 22.1256C20.974 22.1925 20.7831 22.2288 20.5837 22.2288H12.9733C12.9087 22.2292 12.8506 22.2683 12.826 22.3281C12.8014 22.3879 12.8151 22.4566 12.8608 22.5023L14.7538 24.3981C14.9034 24.5477 15.107 24.6324 15.3186 24.6324H21.3835C22.2325 24.6315 23.0464 24.2933 23.646 23.6923C24.2457 23.0913 24.5821 22.2767 24.5812 21.4276V19.3986C24.5808 19.3347 24.5426 19.2771 24.4838 19.252C24.4249 19.2269 24.3569 19.2392 24.3105 19.2833ZM19.3587 7.00601C19.2948 7.00632 19.2372 7.0446 19.2121 7.1034C19.187 7.16221 19.1993 7.2303 19.2434 7.27663L21.7082 9.86184C21.8791 10.0328 22.0024 10.2322 22.08 10.4458C22.1483 10.6268 22.1833 10.8186 22.1832 11.012V18.6395C22.1839 18.7038 22.2229 18.7615 22.2824 18.786C22.3418 18.8106 22.4102 18.7972 22.456 18.752L24.3476 16.8547C24.4973 16.7043 24.5813 16.5007 24.5812 16.2885V10.2108C24.5812 8.44105 23.1497 7.00601 21.3835 7.00601H19.3587ZM6.26747 3.85604C5.23707 4.40304 4.39491 5.24718 3.85033 6.27887C3.30044 7.30913 3.00402 8.33107 2.99589 11.0984L2.99572 16.2337C2.99572 16.2985 3.03482 16.3568 3.09466 16.3816C3.1545 16.4064 3.22337 16.3927 3.2692 16.3469L5.16003 14.4518C5.31018 14.3014 5.39445 14.0975 5.39434 13.8849V11.5661C5.39434 9.42314 5.61725 8.64616 6.0353 7.86276C6.44389 7.08908 7.07563 6.4561 7.84851 6.04599C8.62977 5.62652 9.40533 5.4036 11.5433 5.4036H14.6021C14.6667 5.40326 14.7248 5.36412 14.7494 5.30434C14.774 5.24456 14.7603 5.17586 14.7146 5.13013L12.8238 3.23502C12.6742 3.08475 12.4705 3 12.2583 3H11.195C8.34418 3 7.3101 3.29769 6.26747 3.85604ZM15.3734 3C15.3088 3.00034 15.2506 3.03949 15.2261 3.09927C15.2015 3.15904 15.2152 3.22774 15.2609 3.27348L17.1517 5.16859C17.302 5.31885 17.5049 5.4036 17.7172 5.4036H20.031C22.169 5.4036 22.9446 5.62652 23.7265 6.04599C24.4994 6.4561 25.1312 7.08908 25.5397 7.86276C25.9578 8.64616 26.1807 9.42314 26.1807 11.5661V14.6313C26.181 14.6958 26.22 14.7537 26.2795 14.7785C26.339 14.8032 26.4076 14.7898 26.4535 14.7445L28.3436 12.8494C28.494 12.6991 28.5786 12.4952 28.5786 12.2825V11.2164C28.5786 8.35986 28.2816 7.32364 27.724 6.27887C27.1794 5.24718 26.3373 4.40304 25.3069 3.85604C24.2787 3.30545 23.2589 3.00832 20.4977 3.00017L15.3734 3ZM10.1909 7.00601C8.42466 7.00601 6.99318 8.44105 6.99318 10.2108V12.2398C6.99349 12.3037 7.03177 12.3614 7.09058 12.3864C7.14939 12.4115 7.21747 12.3993 7.26381 12.3552L9.8419 9.88535C10.0128 9.71442 10.2122 9.5905 10.4252 9.51288C10.6058 9.44444 10.7974 9.40945 10.9906 9.40961H18.601C18.6658 9.40955 18.7241 9.37051 18.7489 9.31067C18.7737 9.25083 18.76 9.18196 18.7142 9.13613L16.8205 7.24031C16.671 7.09076 16.468 7.00601 16.2558 7.00601H10.1909Z" fill="black"/>
</svg>
